<svg xmlns="http://www.w3.org/2000/svg" viewBox="0 0 760 440" width="760" height="440" font-family="sans-serif">
<rect width="760" height="440" fill="white"/>
<text x="380" y="34" text-anchor="middle" font-size="23" font-weight="bold" fill="#222">直進コマンドへの“実際の”反応（全128試行）</text>
<line x1="82" y1="347.6" x2="730.0" y2="347.6" stroke="#ccc" stroke-dasharray="4 4"/>
<line x1="174.6" y1="376" x2="174.6" y2="381" stroke="#999"/><text x="174.6" y="400" text-anchor="middle" font-size="15" fill="#444">0</text>
<line x1="359.7" y1="376" x2="359.7" y2="381" stroke="#999"/><text x="359.7" y="400" text-anchor="middle" font-size="15" fill="#444">2</text>
<line x1="544.9" y1="376" x2="544.9" y2="381" stroke="#999"/><text x="544.9" y="400" text-anchor="middle" font-size="15" fill="#444">4</text>
<line x1="730.0" y1="376" x2="730.0" y2="381" stroke="#999"/><text x="730.0" y="400" text-anchor="middle" font-size="15" fill="#444">6</text>
<line x1="77" y1="347.6" x2="82" y2="347.6" stroke="#999"/><text x="72" y="352.6" text-anchor="end" font-size="15" fill="#444">0</text>
<line x1="77" y1="262.4" x2="82" y2="262.4" stroke="#999"/><text x="72" y="267.4" text-anchor="end" font-size="15" fill="#444">0.3</text>
<line x1="77" y1="177.2" x2="82" y2="177.2" stroke="#999"/><text x="72" y="182.2" text-anchor="end" font-size="15" fill="#444">0.6</text>
<line x1="77" y1="92.0" x2="82" y2="92.0" stroke="#999"/><text x="72" y="97.0" text-anchor="end" font-size="15" fill="#444">0.9</text>
<line x1="82" y1="92" x2="82" y2="376" stroke="#888" stroke-width="1.3"/><line x1="82" y1="376" x2="730.0" y2="376" stroke="#888" stroke-width="1.3"/>
<text x="406" y="426" text-anchor="middle" font-size="16" fill="#222">コマンドからの経過（秒）　0＝合図の瞬間</text>
<text x="24" y="234" text-anchor="middle" font-size="16" fill="#222" transform="rotate(-90 24 234)">前進した距離（m）</text>
<polygon points="82.0,345.0 128.3,346.4 174.6,347.6 220.9,344.4 267.1,342.5 313.4,340.2 359.7,335.1 406.0,325.6 452.3,304.0 498.6,261.8 544.9,222.0 591.1,188.5 637.4,151.9 683.7,118.0 730.0,102.5 730.0,196.7 683.7,206.6 637.4,231.0 591.1,254.3 544.9,282.2 498.6,318.9 452.3,338.3 406.0,346.7 359.7,349.4 313.4,350.1 267.1,349.6 220.9,349.2 174.6,347.6 128.3,350.9 82.0,353.4" fill="#1D9E75" fill-opacity="0.16"/>
<polyline points="82.0,351.3 128.3,349.6 174.6,347.6 220.9,344.8 267.1,342.5 313.4,340.3 359.7,337.4 406.0,331.0 452.3,316.4 498.6,286.5 544.9,251.3 591.1,220.7 637.4,190.1 683.7,164.9 730.0,145.5" fill="none" stroke="#1D9E75" stroke-width="3.4"/>
<line x1="86" y1="64" x2="112" y2="64" stroke="#1D9E75" stroke-width="4"/><text x="118" y="70" font-size="15" fill="#333">「まっすぐ進め」</text>
<line x1="254.0" y1="64" x2="280.0" y2="64" stroke="#888780" stroke-width="4"/><text x="286.0" y="70" font-size="15" fill="#333">帯=個人差</text>
</svg>