<svg xmlns="http://www.w3.org/2000/svg" viewBox="0 0 760 440" width="760" height="440" font-family="sans-serif">
<rect width="760" height="440" fill="white"/>
<text x="380" y="34" text-anchor="middle" font-size="23" font-weight="bold" fill="#222">旋回コマンドへの“実際の”反応（全128試行）</text>
<line x1="82" y1="234.0" x2="730.0" y2="234.0" stroke="#ccc" stroke-dasharray="4 4"/>
<line x1="174.6" y1="376" x2="174.6" y2="381" stroke="#999"/><text x="174.6" y="400" text-anchor="middle" font-size="15" fill="#444">0</text>
<line x1="359.7" y1="376" x2="359.7" y2="381" stroke="#999"/><text x="359.7" y="400" text-anchor="middle" font-size="15" fill="#444">2</text>
<line x1="544.9" y1="376" x2="544.9" y2="381" stroke="#999"/><text x="544.9" y="400" text-anchor="middle" font-size="15" fill="#444">4</text>
<line x1="730.0" y1="376" x2="730.0" y2="381" stroke="#999"/><text x="730.0" y="400" text-anchor="middle" font-size="15" fill="#444">6</text>
<line x1="77" y1="347.6" x2="82" y2="347.6" stroke="#999"/><text x="72" y="352.6" text-anchor="end" font-size="15" fill="#444">-40</text>
<line x1="77" y1="290.8" x2="82" y2="290.8" stroke="#999"/><text x="72" y="295.8" text-anchor="end" font-size="15" fill="#444">-20</text>
<line x1="77" y1="234.0" x2="82" y2="234.0" stroke="#999"/><text x="72" y="239.0" text-anchor="end" font-size="15" fill="#444">0</text>
<line x1="77" y1="177.2" x2="82" y2="177.2" stroke="#999"/><text x="72" y="182.2" text-anchor="end" font-size="15" fill="#444">20</text>
<line x1="77" y1="120.4" x2="82" y2="120.4" stroke="#999"/><text x="72" y="125.4" text-anchor="end" font-size="15" fill="#444">40</text>
<line x1="82" y1="92" x2="82" y2="376" stroke="#888" stroke-width="1.3"/><line x1="82" y1="376" x2="730.0" y2="376" stroke="#888" stroke-width="1.3"/>
<text x="406" y="426" text-anchor="middle" font-size="16" fill="#222">コマンドからの経過（秒）　0＝合図の瞬間</text>
<text x="24" y="234" text-anchor="middle" font-size="16" fill="#222" transform="rotate(-90 24 234)">頭の向きの変化（度, +左 / −右）</text>
<polygon points="82.0,221.8 128.3,228.6 174.6,234.0 220.9,230.4 267.1,228.9 313.4,225.1 359.7,191.6 406.0,168.3 452.3,146.9 498.6,127.9 544.9,109.3 591.1,108.0 637.4,99.7 683.7,91.5 730.0,100.1 730.0,188.6 683.7,190.8 637.4,181.7 591.1,188.6 544.9,188.5 498.6,199.7 452.3,205.8 406.0,222.3 359.7,232.7 313.4,241.8 267.1,243.0 220.9,238.9 174.6,234.0 128.3,240.2 82.0,248.4" fill="#185FA5" fill-opacity="0.16"/>
<polyline points="82.0,230.7 128.3,233.1 174.6,234.0 220.9,235.5 267.1,237.3 313.4,234.2 359.7,212.1 406.0,189.6 452.3,172.9 498.6,162.8 544.9,152.0 591.1,144.9 637.4,140.5 683.7,139.3 730.0,140.9" fill="none" stroke="#185FA5" stroke-width="3.4"/>
<polygon points="82.0,222.6 128.3,227.1 174.6,234.0 220.9,229.8 267.1,229.8 313.4,229.6 359.7,235.2 406.0,245.5 452.3,259.6 498.6,273.5 544.9,277.2 591.1,277.9 637.4,273.8 683.7,270.1 730.0,266.9 730.0,359.7 683.7,364.0 637.4,357.5 591.1,355.2 544.9,371.1 498.6,368.1 452.3,351.0 406.0,319.6 359.7,278.1 313.4,252.0 267.1,246.0 220.9,240.5 174.6,234.0 128.3,241.1 82.0,255.9" fill="#D85A30" fill-opacity="0.16"/>
<polyline points="82.0,233.6 128.3,232.3 174.6,234.0 220.9,234.6 267.1,239.4 313.4,246.6 359.7,268.1 406.0,290.7 452.3,314.5 498.6,327.4 544.9,329.4 591.1,330.2 637.4,325.5 683.7,324.8 730.0,320.3" fill="none" stroke="#D85A30" stroke-width="3.4"/>
<line x1="86" y1="64" x2="112" y2="64" stroke="#185FA5" stroke-width="4"/><text x="118" y="70" font-size="15" fill="#333">「左に回れ」</text>
<line x1="223.0" y1="64" x2="249.0" y2="64" stroke="#D85A30" stroke-width="4"/><text x="255.0" y="70" font-size="15" fill="#333">「右に回れ」</text>
<line x1="360.0" y1="64" x2="386.0" y2="64" stroke="#888780" stroke-width="4"/><text x="392.0" y="70" font-size="15" fill="#333">帯=個人差</text>
</svg>